<?xml version="1.0" encoding="utf-8"?>
<!-- Generator: Adobe Illustrator 19.0.0, SVG Export Plug-In . SVG Version: 6.00 Build 0)  -->
<svg version="1.1" id="Layer_1" xmlns="http://www.w3.org/2000/svg" xmlns:xlink="http://www.w3.org/1999/xlink" x="0px" y="0px" width="65px" height="65px"
	 viewBox="0 0 65 65" style="enable-background:new 0 0 65 65;" xml:space="preserve">
<style type="text/css">
	.st0{fill:none;stroke:#333085;stroke-width:1.2;stroke-linecap:round;stroke-linejoin:round;stroke-miterlimit:10;}
</style>
<g id="XMLID_328_">
	<line id="XMLID_326_" class="st0" x1="16.8" y1="31.9" x2="20.3" y2="25.7"/>
	<line id="XMLID_325_" class="st0" x1="20.3" y1="44.5" x2="16.8" y2="38.4"/>
	<line id="XMLID_324_" class="st0" x1="32.8" y1="47.6" x2="26" y2="47.6"/>
	<line id="XMLID_323_" class="st0" x1="41.8" y1="38.3" x2="38.3" y2="44.4"/>
	<line id="XMLID_322_" class="st0" x1="38.2" y1="25.9" x2="41.8" y2="32"/>
	<line id="XMLID_321_" class="st0" x1="26" y1="22.7" x2="32.8" y2="22.7"/>
	<circle id="XMLID_320_" class="st0" cx="36.4" cy="22.7" r="3.6"/>
	<circle id="XMLID_319_" class="st0" cx="48.1" cy="6.9" r="3.6"/>
	<circle id="XMLID_318_" class="st0" cx="16" cy="12.8" r="3.6"/>
	<circle id="XMLID_317_" class="st0" cx="60.7" cy="46.3" r="3.6"/>
	<circle id="XMLID_316_" class="st0" cx="46.2" cy="58.1" r="3.6"/>
	<circle id="XMLID_315_" class="st0" cx="54.3" cy="35.1" r="3.6"/>
	<circle id="XMLID_314_" class="st0" cx="43.6" cy="35.1" r="3.6"/>
	<circle id="XMLID_313_" class="st0" cx="36.4" cy="47.6" r="3.6"/>
	<circle id="XMLID_312_" class="st0" cx="22.3" cy="22.7" r="3.6"/>
	<circle id="XMLID_311_" class="st0" cx="15.2" cy="35.1" r="3.6"/>
	<circle id="XMLID_310_" class="st0" cx="22.3" cy="47.6" r="3.6"/>
	<circle id="XMLID_309_" class="st0" cx="15.2" cy="58.1" r="3.6"/>
	<circle id="XMLID_308_" class="st0" cx="4.3" cy="49.7" r="3.6"/>
	<line id="XMLID_307_" class="st0" x1="38.3" y1="19.6" x2="46.2" y2="9.9"/>
	<line id="XMLID_306_" class="st0" x1="47.2" y1="35.7" x2="50.7" y2="35.7"/>
	<circle id="XMLID_305_" class="st0" cx="4.3" cy="35.1" r="3.6"/>
	<line id="XMLID_304_" class="st0" x1="11.5" y1="35.7" x2="8" y2="35.7"/>
	<line id="XMLID_303_" class="st0" x1="56.1" y1="38.3" x2="58.7" y2="43.3"/>
	<line id="XMLID_302_" class="st0" x1="38.3" y1="50.7" x2="43.1" y2="56.2"/>
	<line id="XMLID_301_" class="st0" x1="18.2" y1="16.1" x2="20.3" y2="19.7"/>
	<line id="XMLID_300_" class="st0" x1="20.3" y1="50.6" x2="17.6" y2="54.9"/>
	<line id="XMLID_299_" class="st0" x1="12.5" y1="55.7" x2="6.9" y2="52.2"/>
</g>
</svg>
